<?xml version="1.0" encoding="UTF-8"?>
<svg width="600" height="450" viewBox="0 0 600 450" xmlns="http://www.w3.org/2000/svg">
  <rect width="600" height="450" rx="20" ry="20" fill="#d8e4f0" stroke="#555" stroke-width="8"/>
  <path d="M 41.33 219.03
    C 163.04 197.47 295.69 240.59 428.34 219.03
    L 558.67 219.03"
    fill="none" stroke="#89c4e8" stroke-width="18" stroke-linecap="round" opacity="0.5"/>
  <g fill="none" stroke="#d44040" stroke-width="4.0" stroke-dasharray="8,8" stroke-linecap="round" stroke-linejoin="round" style="z-index:1">
    <line x1="93.39" y1="38.29" x2="166.02" y2="124.18"/>
    <line x1="320.56" y1="58.19" x2="166.02" y2="124.18"/>
    <line x1="320.56" y1="58.19" x2="340.13" y2="154.36"/>
    <line x1="320.56" y1="58.19" x2="486.05" y2="176.91"/>
    <line x1="166.02" y1="124.18" x2="77.14" y2="180.23"/>
    <line x1="166.02" y1="124.18" x2="202.17" y2="180.23"/>
    <line x1="340.13" y1="154.36" x2="202.17" y2="180.23"/>
    <line x1="340.13" y1="154.36" x2="486.05" y2="176.91"/>
    <line x1="340.13" y1="154.36" x2="239.97" y2="236.61"/>
    <line x1="202.17" y1="180.23" x2="47.30" y2="213.39"/>
    <line x1="202.17" y1="180.23" x2="239.97" y2="236.61"/>
    <line x1="486.05" y1="176.91" x2="442.60" y2="321.51"/>
    <line x1="486.05" y1="176.91" x2="311.94" y2="283.37"/>
    <line x1="239.97" y1="236.61" x2="229.36" y2="318.19"/>
    <line x1="239.97" y1="236.61" x2="91.07" y2="338.09"/>
    <line x1="442.60" y1="321.51" x2="311.94" y2="283.37"/>
    <line x1="442.60" y1="321.51" x2="332.50" y2="392.47"/>
    <line x1="311.94" y1="283.37" x2="229.36" y2="318.19"/>
    <line x1="229.36" y1="318.19" x2="91.07" y2="338.09"/>
    <line x1="229.36" y1="318.19" x2="332.50" y2="392.47"/>
  </g>
  <g fill="none" stroke="#4a9e50" stroke-width="3.0"  stroke-dasharray="8,3" stroke-linecap="round" stroke-linejoin="round" style="z-index:2">
    <line x1="93.39" y1="38.29" x2="166.02" y2="124.18"/>
    <line x1="93.39" y1="38.29" x2="110.97" y2="143.75"/>
    <line x1="254.23" y1="33.32" x2="254.23" y2="99.64"/>
    <line x1="254.23" y1="33.32" x2="290.38" y2="79.74"/>
    <line x1="541.43" y1="36.96" x2="539.77" y2="108.27"/>
    <line x1="320.47" y1="57.70" x2="364.58" y2="50.07"/>
    <line x1="320.85" y1="58.60" x2="290.67" y2="80.15"/>
    <line x1="320.56" y1="58.19" x2="398.83" y2="117.22"/>
    <line x1="364.62" y1="50.06" x2="411.71" y2="45.42"/>
    <line x1="411.76" y1="45.92" x2="494.67" y2="87.04"/>
    <line x1="411.76" y1="45.92" x2="441.61" y2="107.93"/>
    <line x1="253.99" y1="99.20" x2="290.14" y2="79.30"/>
    <line x1="254.40" y1="100.11" x2="226.22" y2="110.39"/>
    <line x1="254.23" y1="99.64" x2="293.37" y2="162.98"/>
    <line x1="290.38" y1="79.74" x2="340.13" y2="154.36"/>
    <line x1="494.85" y1="87.51" x2="441.79" y2="108.40"/>
    <line x1="494.88" y1="86.59" x2="539.98" y2="107.82"/>
    <line x1="494.67" y1="87.04" x2="495.33" y2="127.83"/>
    <line x1="226.05" y1="109.92" x2="166.02" y2="124.18"/>
    <line x1="226.05" y1="109.92" x2="238.32" y2="174.59"/>
    <line x1="441.61" y1="107.93" x2="398.83" y2="117.22"/>
    <line x1="441.61" y1="107.93" x2="454.54" y2="184.87"/>
    <line x1="540.25" y1="108.40" x2="527.98" y2="154.16"/>
    <line x1="166.02" y1="124.18" x2="110.97" y2="143.75"/>
    <line x1="166.02" y1="124.18" x2="182.93" y2="184.54"/>
    <line x1="398.83" y1="117.22" x2="340.13" y2="154.36"/>
    <line x1="398.83" y1="117.22" x2="416.07" y2="175.59"/>
    <line x1="495.33" y1="127.83" x2="486.05" y2="176.91"/>
    <line x1="111.34" y1="144.09" x2="77.51" y2="180.57"/>
    <line x1="110.97" y1="143.75" x2="157.07" y2="187.86"/>
    <line x1="238.32" y1="174.59" x2="293.37" y2="162.98"/>
    <line x1="238.40" y1="175.08" x2="202.25" y2="180.72"/>
    <line x1="238.32" y1="174.59" x2="270.82" y2="215.38"/>
    <line x1="293.37" y1="162.98" x2="340.13" y2="154.36"/>
    <line x1="293.86" y1="162.91" x2="297.17" y2="186.13"/>
    <line x1="340.13" y1="154.36" x2="296.68" y2="186.20"/>
    <line x1="340.13" y1="154.36" x2="354.72" y2="181.89"/>
    <line x1="527.50" y1="154.03" x2="501.63" y2="200.46"/>
    <line x1="527.50" y1="154.03" x2="558.01" y2="206.76"/>
    <line x1="77.14" y1="180.23" x2="80.46" y2="206.43"/>
    <line x1="157.01" y1="187.36" x2="182.87" y2="184.04"/>
    <line x1="157.07" y1="187.86" x2="80.46" y2="206.43"/>
    <line x1="157.07" y1="187.86" x2="193.55" y2="271.10"/>
    <line x1="182.82" y1="184.05" x2="202.06" y2="179.74"/>
    <line x1="296.68" y1="186.20" x2="270.82" y2="215.38"/>
    <line x1="296.68" y1="186.20" x2="311.94" y2="283.37"/>
    <line x1="416.07" y1="175.59" x2="454.54" y2="184.87"/>
    <line x1="416.07" y1="175.59" x2="354.72" y2="181.89"/>
    <line x1="416.07" y1="175.59" x2="416.73" y2="231.63"/>
    <line x1="454.54" y1="184.87" x2="501.63" y2="200.46"/>
    <line x1="486.47" y1="176.63" x2="502.05" y2="200.18"/>
    <line x1="47.20" y1="212.90" x2="80.36" y2="205.94"/>
    <line x1="270.82" y1="215.38" x2="239.97" y2="236.61"/>
    <line x1="354.72" y1="181.89" x2="380.26" y2="247.55"/>
    <line x1="501.63" y1="200.46" x2="558.01" y2="206.76"/>
    <line x1="502.12" y1="200.58" x2="492.84" y2="238.05"/>
    <line x1="558.01" y1="206.76" x2="509.59" y2="323.83"/>
    <line x1="492.35" y1="237.93" x2="416.73" y2="231.63"/>
    <line x1="492.35" y1="237.93" x2="472.78" y2="275.08"/>
    <line x1="240.27" y1="237.01" x2="193.85" y2="271.50"/>
    <line x1="416.93" y1="232.09" x2="380.46" y2="248.01"/>
    <line x1="416.73" y1="231.63" x2="416.73" y2="294.97"/>
    <line x1="89.07" y1="279.88" x2="154.40" y2="278.22"/>
    <line x1="89.08" y1="280.38" x2="48.62" y2="327.47"/>
    <line x1="154.31" y1="278.23" x2="193.45" y2="270.61"/>
    <line x1="154.41" y1="278.72" x2="48.62" y2="327.47"/>
    <line x1="154.41" y1="278.72" x2="168.67" y2="347.37"/>
    <line x1="193.55" y1="271.10" x2="229.36" y2="318.19"/>
    <line x1="380.68" y1="247.82" x2="360.78" y2="279.33"/>
    <line x1="442.60" y1="321.51" x2="472.78" y2="275.08"/>
    <line x1="442.24" y1="321.86" x2="416.37" y2="295.32"/>
    <line x1="442.60" y1="321.51" x2="509.59" y2="323.83"/>
    <line x1="442.60" y1="321.51" x2="415.74" y2="374.23"/>
    <line x1="442.60" y1="321.51" x2="468.80" y2="418.34"/>
    <line x1="360.40" y1="279.56" x2="311.98" y2="283.87"/>
    <line x1="360.36" y1="279.06" x2="345.10" y2="329.13"/>
    <line x1="473.18" y1="274.78" x2="509.99" y2="323.53"/>
    <line x1="312.21" y1="283.79" x2="273.74" y2="308.33"/>
    <line x1="312.43" y1="283.28" x2="320.39" y2="326.39"/>
    <line x1="416.73" y1="294.97" x2="345.10" y2="329.13"/>
    <line x1="48.62" y1="327.47" x2="91.07" y2="338.09"/>
    <line x1="229.25" y1="317.70" x2="273.36" y2="307.42"/>
    <line x1="229.36" y1="318.19" x2="178.29" y2="367.27"/>
    <line x1="229.36" y1="318.19" x2="298.01" y2="370.26"/>
    <line x1="273.47" y1="307.91" x2="319.90" y2="326.48"/>
    <line x1="319.95" y1="325.98" x2="345.15" y2="328.63"/>
    <line x1="319.90" y1="326.48" x2="298.01" y2="370.26"/>
    <line x1="345.10" y1="329.13" x2="332.50" y2="392.47"/>
    <line x1="509.59" y1="323.83" x2="468.80" y2="418.34"/>
    <line x1="91.07" y1="338.09" x2="41.33" y2="365.94"/>
    <line x1="91.07" y1="338.09" x2="118.93" y2="385.18"/>
    <line x1="169.12" y1="347.15" x2="178.74" y2="367.05"/>
    <line x1="168.67" y1="347.37" x2="118.93" y2="385.18"/>
    <line x1="41.33" y1="365.94" x2="88.75" y2="410.38"/>
    <line x1="178.29" y1="367.27" x2="298.01" y2="370.26"/>
    <line x1="178.29" y1="367.27" x2="88.75" y2="410.38"/>
    <line x1="298.28" y1="369.84" x2="332.77" y2="392.05"/>
    <line x1="332.50" y1="392.47" x2="415.74" y2="374.23"/>
    <line x1="88.43" y1="410.00" x2="118.61" y2="384.80"/>
  </g>
  <g fill="none" stroke="#c8b830" stroke-width="1"  stroke-linecap="round" stroke-linejoin="round" style="z-index:3">
    <line x1="93.39" y1="38.29" x2="74.49" y2="60.51"/>
    <line x1="93.39" y1="38.29" x2="113.29" y2="63.16"/>
    <line x1="191.89" y1="31.66" x2="223.72" y2="60.51"/>
    <line x1="191.89" y1="31.66" x2="134.52" y2="73.11"/>
    <line x1="254.23" y1="33.32" x2="292.37" y2="30.00"/>
    <line x1="254.23" y1="33.32" x2="252.58" y2="65.82"/>
    <line x1="254.23" y1="33.32" x2="275.79" y2="60.51"/>
    <line x1="292.37" y1="30.00" x2="320.56" y2="58.19"/>
    <line x1="445.92" y1="34.97" x2="411.76" y2="45.92"/>
    <line x1="445.92" y1="34.97" x2="455.54" y2="61.84"/>
    <line x1="493.34" y1="34.64" x2="541.43" y2="36.96"/>
    <line x1="493.34" y1="34.64" x2="494.67" y2="87.04"/>
    <line x1="541.43" y1="36.96" x2="537.78" y2="76.43"/>
    <line x1="74.49" y1="60.51" x2="51.94" y2="79.08"/>
    <line x1="74.49" y1="60.51" x2="87.76" y2="83.39"/>
    <line x1="113.29" y1="63.16" x2="87.76" y2="83.39"/>
    <line x1="113.29" y1="63.16" x2="134.52" y2="73.11"/>
    <line x1="223.72" y1="60.51" x2="252.58" y2="65.82"/>
    <line x1="223.72" y1="60.51" x2="180.28" y2="92.02"/>
    <line x1="223.72" y1="60.51" x2="226.05" y2="109.92"/>
    <line x1="252.58" y1="65.82" x2="254.23" y2="99.64"/>
    <line x1="275.79" y1="60.51" x2="290.38" y2="79.74"/>
    <line x1="320.82" y1="59.67" x2="364.93" y2="52.04"/>
    <line x1="319.69" y1="56.97" x2="289.51" y2="78.52"/>
    <line x1="320.56" y1="58.19" x2="347.09" y2="81.40"/>
    <line x1="364.82" y1="52.05" x2="411.91" y2="47.41"/>
    <line x1="364.67" y1="50.56" x2="371.63" y2="88.37"/>
    <line x1="411.76" y1="45.92" x2="455.54" y2="61.84"/>
    <line x1="411.76" y1="45.92" x2="408.44" y2="60.84"/>
    <line x1="411.76" y1="45.92" x2="431.99" y2="74.11"/>
    <line x1="455.54" y1="61.84" x2="431.99" y2="74.11"/>
    <line x1="455.54" y1="61.84" x2="494.67" y2="87.04"/>
    <line x1="537.78" y1="76.43" x2="494.67" y2="87.04"/>
    <line x1="537.78" y1="76.43" x2="554.36" y2="83.39"/>
    <line x1="51.94" y1="79.08" x2="66.86" y2="96.33"/>
    <line x1="51.94" y1="79.08" x2="42.65" y2="116.89"/>
    <line x1="87.76" y1="83.39" x2="117.93" y2="109.26"/>
    <line x1="134.52" y1="73.11" x2="159.72" y2="102.96"/>
    <line x1="180.28" y1="92.02" x2="159.72" y2="102.96"/>
    <line x1="254.95" y1="100.95" x2="291.10" y2="81.05"/>
    <line x1="253.72" y1="98.23" x2="225.54" y2="108.51"/>
    <line x1="254.23" y1="99.64" x2="266.51" y2="120.54"/>
    <line x1="290.38" y1="79.74" x2="308.29" y2="98.98"/>
    <line x1="347.09" y1="81.40" x2="308.29" y2="98.98"/>
    <line x1="347.09" y1="81.40" x2="360.03" y2="102.63"/>
    <line x1="371.63" y1="88.37" x2="360.03" y2="102.63"/>
    <line x1="371.63" y1="88.37" x2="383.57" y2="97.32"/>
    <line x1="408.44" y1="60.84" x2="415.08" y2="83.06"/>
    <line x1="408.44" y1="60.84" x2="383.57" y2="97.32"/>
    <line x1="415.08" y1="83.06" x2="431.99" y2="74.11"/>
    <line x1="415.08" y1="83.06" x2="424.36" y2="113.90"/>
    <line x1="431.99" y1="74.11" x2="441.61" y2="107.93"/>
    <line x1="494.12" y1="85.64" x2="441.06" y2="106.53"/>
    <line x1="494.03" y1="88.40" x2="539.13" y2="109.63"/>
    <line x1="554.36" y1="83.39" x2="539.77" y2="108.27"/>
    <line x1="66.86" y1="96.33" x2="42.65" y2="116.89"/>
    <line x1="66.86" y1="96.33" x2="96.05" y2="127.83"/>
    <line x1="117.93" y1="109.26" x2="159.72" y2="102.96"/>
    <line x1="117.93" y1="109.26" x2="96.05" y2="127.83"/>
    <line x1="117.93" y1="109.26" x2="132.19" y2="135.13"/>
    <line x1="159.72" y1="102.96" x2="166.02" y2="124.18"/>
    <line x1="226.05" y1="109.92" x2="192.55" y2="118.55"/>
    <line x1="226.05" y1="109.92" x2="235.00" y2="137.12"/>
    <line x1="266.51" y1="120.54" x2="282.42" y2="122.53"/>
    <line x1="266.51" y1="120.54" x2="235.00" y2="137.12"/>
    <line x1="266.51" y1="120.54" x2="293.37" y2="162.98"/>
    <line x1="282.42" y1="122.53" x2="308.29" y2="98.98"/>
    <line x1="282.42" y1="122.53" x2="294.69" y2="138.11"/>
    <line x1="308.29" y1="98.98" x2="320.56" y2="120.54"/>
    <line x1="360.03" y1="102.63" x2="320.56" y2="120.54"/>
    <line x1="360.03" y1="102.63" x2="371.96" y2="124.52"/>
    <line x1="383.57" y1="97.32" x2="371.96" y2="124.52"/>
    <line x1="383.57" y1="97.32" x2="398.83" y2="117.22"/>
    <line x1="424.36" y1="113.90" x2="441.61" y2="107.93"/>
    <line x1="424.36" y1="113.90" x2="398.83" y2="117.22"/>
    <line x1="424.36" y1="113.90" x2="429.01" y2="134.46"/>
    <line x1="441.61" y1="107.93" x2="448.90" y2="128.83"/>
    <line x1="539.77" y1="108.27" x2="556.35" y2="133.14"/>
    <line x1="538.32" y1="107.88" x2="526.05" y2="153.64"/>
    <line x1="42.65" y1="116.89" x2="59.23" y2="137.45"/>
    <line x1="96.05" y1="127.83" x2="110.97" y2="143.75"/>
    <line x1="132.19" y1="135.13" x2="166.02" y2="124.18"/>
    <line x1="132.19" y1="135.13" x2="110.97" y2="143.75"/>
    <line x1="132.19" y1="135.13" x2="121.58" y2="156.02"/>
    <line x1="132.19" y1="135.13" x2="141.48" y2="152.37"/>
    <line x1="166.02" y1="124.18" x2="192.55" y2="118.55"/>
    <line x1="166.02" y1="124.18" x2="175.31" y2="157.68"/>
    <line x1="192.55" y1="118.55" x2="193.88" y2="151.38"/>
    <line x1="235.00" y1="137.12" x2="193.88" y2="151.38"/>
    <line x1="235.00" y1="137.12" x2="238.32" y2="174.59"/>
    <line x1="294.69" y1="138.11" x2="320.56" y2="120.54"/>
    <line x1="294.69" y1="138.11" x2="311.61" y2="158.67"/>
    <line x1="371.96" y1="124.52" x2="398.83" y2="117.22"/>
    <line x1="371.96" y1="124.52" x2="340.13" y2="154.36"/>
    <line x1="371.96" y1="124.52" x2="377.27" y2="146.07"/>
    <line x1="398.83" y1="117.22" x2="410.43" y2="144.08"/>
    <line x1="429.01" y1="134.46" x2="448.90" y2="128.83"/>
    <line x1="429.01" y1="134.46" x2="410.43" y2="144.08"/>
    <line x1="448.90" y1="128.83" x2="495.33" y2="127.83"/>
    <line x1="448.90" y1="128.83" x2="452.22" y2="151.38"/>
    <line x1="495.33" y1="127.83" x2="489.03" y2="151.05"/>
    <line x1="556.35" y1="133.14" x2="550.71" y2="176.91"/>
    <line x1="59.23" y1="137.45" x2="110.97" y2="143.75"/>
    <line x1="59.23" y1="137.45" x2="58.57" y2="158.67"/>
    <line x1="110.97" y1="143.75" x2="121.58" y2="156.02"/>
    <line x1="109.87" y1="142.73" x2="76.04" y2="179.21"/>
    <line x1="110.97" y1="143.75" x2="102.35" y2="172.93"/>
    <line x1="121.58" y1="156.02" x2="102.35" y2="172.93"/>
    <line x1="121.58" y1="156.02" x2="135.18" y2="171.28"/>
    <line x1="141.48" y1="152.37" x2="175.31" y2="157.68"/>
    <line x1="141.48" y1="152.37" x2="135.18" y2="171.28"/>
    <line x1="175.31" y1="157.68" x2="193.88" y2="151.38"/>
    <line x1="175.31" y1="157.68" x2="135.18" y2="171.28"/>
    <line x1="175.31" y1="157.68" x2="182.93" y2="184.54"/>
    <line x1="193.88" y1="151.38" x2="202.17" y2="180.23"/>
    <line x1="238.32" y1="174.59" x2="265.18" y2="169.62"/>
    <line x1="238.09" y1="173.11" x2="201.94" y2="178.75"/>
    <line x1="238.32" y1="174.59" x2="246.94" y2="189.52"/>
    <line x1="265.18" y1="169.62" x2="293.37" y2="162.98"/>
    <line x1="265.18" y1="169.62" x2="283.42" y2="195.48"/>
    <line x1="293.37" y1="162.98" x2="311.61" y2="158.67"/>
    <line x1="291.89" y1="163.19" x2="295.20" y2="186.41"/>
    <line x1="311.61" y1="158.67" x2="340.13" y2="154.36"/>
    <line x1="311.61" y1="158.67" x2="296.68" y2="186.20"/>
    <line x1="340.13" y1="154.36" x2="377.27" y2="146.07"/>
    <line x1="340.13" y1="154.36" x2="357.70" y2="168.95"/>
    <line x1="377.27" y1="146.07" x2="410.43" y2="144.08"/>
    <line x1="377.27" y1="146.07" x2="378.93" y2="161.66"/>
    <line x1="410.43" y1="144.08" x2="416.07" y2="175.59"/>
    <line x1="452.22" y1="151.38" x2="489.03" y2="151.05"/>
    <line x1="452.22" y1="151.38" x2="454.54" y2="184.87"/>
    <line x1="489.03" y1="151.05" x2="527.50" y2="154.03"/>
    <line x1="489.03" y1="151.05" x2="486.05" y2="176.91"/>
    <line x1="527.50" y1="154.03" x2="513.24" y2="176.91"/>
    <line x1="527.50" y1="154.03" x2="550.71" y2="176.91"/>
    <line x1="58.57" y1="158.67" x2="77.14" y2="180.23"/>
    <line x1="58.57" y1="158.67" x2="44.97" y2="197.47"/>
    <line x1="77.14" y1="180.23" x2="102.35" y2="172.93"/>
    <line x1="77.14" y1="180.23" x2="44.97" y2="197.47"/>
    <line x1="102.35" y1="172.93" x2="80.46" y2="206.43"/>
    <line x1="135.18" y1="171.28" x2="157.07" y2="187.86"/>
    <line x1="157.26" y1="189.35" x2="183.12" y2="186.03"/>
    <line x1="157.07" y1="187.86" x2="95.71" y2="203.78"/>
    <line x1="157.07" y1="187.86" x2="173.65" y2="215.38"/>
    <line x1="183.26" y1="186.00" x2="202.50" y2="181.69"/>
    <line x1="182.93" y1="184.54" x2="190.56" y2="209.08"/>
    <line x1="202.17" y1="180.23" x2="212.45" y2="201.79"/>
    <line x1="246.94" y1="189.52" x2="233.67" y2="204.77"/>
    <line x1="246.94" y1="189.52" x2="270.82" y2="215.38"/>
    <line x1="283.42" y1="195.48" x2="296.68" y2="186.20"/>
    <line x1="283.42" y1="195.48" x2="270.82" y2="215.38"/>
    <line x1="296.68" y1="186.20" x2="308.95" y2="200.79"/>
    <line x1="333.83" y1="180.89" x2="308.95" y2="200.79"/>
    <line x1="333.83" y1="180.89" x2="354.72" y2="181.89"/>
    <line x1="357.70" y1="168.95" x2="378.93" y2="161.66"/>
    <line x1="378.93" y1="161.66" x2="384.90" y2="178.57"/>
    <line x1="416.07" y1="175.59" x2="384.90" y2="178.57"/>
    <line x1="416.07" y1="175.59" x2="416.07" y2="193.83"/>
    <line x1="454.54" y1="184.87" x2="471.79" y2="189.52"/>
    <line x1="471.79" y1="189.52" x2="486.05" y2="176.91"/>
    <line x1="471.79" y1="189.52" x2="459.52" y2="247.22"/>
    <line x1="484.80" y1="177.74" x2="500.38" y2="201.29"/>
    <line x1="513.24" y1="176.91" x2="550.71" y2="176.91"/>
    <line x1="513.24" y1="176.91" x2="501.63" y2="200.46"/>
    <line x1="550.71" y1="176.91" x2="501.63" y2="200.46"/>
    <line x1="550.71" y1="176.91" x2="558.01" y2="206.76"/>
    <line x1="44.97" y1="197.47" x2="47.30" y2="213.39"/>
    <line x1="47.61" y1="214.86" x2="80.77" y2="207.90"/>
    <line x1="80.46" y1="206.43" x2="95.71" y2="203.78"/>
    <line x1="95.71" y1="203.78" x2="89.08" y2="280.38"/>
    <line x1="173.65" y1="215.38" x2="190.56" y2="209.08"/>
    <line x1="173.65" y1="215.38" x2="199.18" y2="241.91"/>
    <line x1="190.56" y1="209.08" x2="212.45" y2="201.79"/>
    <line x1="190.56" y1="209.08" x2="199.18" y2="241.91"/>
    <line x1="212.45" y1="201.79" x2="233.67" y2="204.77"/>
    <line x1="212.45" y1="201.79" x2="224.06" y2="217.04"/>
    <line x1="233.67" y1="204.77" x2="224.06" y2="217.04"/>
    <line x1="233.67" y1="204.77" x2="249.92" y2="229.64"/>
    <line x1="270.82" y1="215.38" x2="308.95" y2="200.79"/>
    <line x1="270.82" y1="215.38" x2="249.92" y2="229.64"/>
    <line x1="270.82" y1="215.38" x2="286.07" y2="229.64"/>
    <line x1="308.95" y1="200.79" x2="312.93" y2="221.35"/>
    <line x1="354.72" y1="181.89" x2="384.90" y2="178.57"/>
    <line x1="354.72" y1="181.89" x2="352.73" y2="208.42"/>
    <line x1="416.07" y1="193.83" x2="416.73" y2="231.63"/>
    <line x1="501.63" y1="200.46" x2="534.46" y2="206.76"/>
    <line x1="500.17" y1="200.10" x2="490.89" y2="237.57"/>
    <line x1="534.46" y1="206.76" x2="558.01" y2="206.76"/>
    <line x1="558.01" y1="206.76" x2="547.07" y2="266.12"/>
    <line x1="492.35" y1="237.93" x2="459.52" y2="247.22"/>
    <line x1="492.35" y1="237.93" x2="547.07" y2="266.12"/>
    <line x1="199.18" y1="241.91" x2="224.06" y2="217.04"/>
    <line x1="199.18" y1="241.91" x2="193.55" y2="271.10"/>
    <line x1="224.06" y1="217.04" x2="239.97" y2="236.61"/>
    <line x1="239.97" y1="236.61" x2="249.92" y2="229.64"/>
    <line x1="239.08" y1="235.41" x2="192.66" y2="269.90"/>
    <line x1="249.92" y1="229.64" x2="260.87" y2="247.22"/>
    <line x1="286.07" y1="229.64" x2="312.93" y2="221.35"/>
    <line x1="286.07" y1="229.64" x2="260.87" y2="247.22"/>
    <line x1="312.93" y1="221.35" x2="352.73" y2="208.42"/>
    <line x1="312.93" y1="221.35" x2="332.17" y2="235.94"/>
    <line x1="312.93" y1="221.35" x2="270.48" y2="259.49"/>
    <line x1="312.93" y1="221.35" x2="312.60" y2="256.84"/>
    <line x1="352.73" y1="208.42" x2="332.17" y2="235.94"/>
    <line x1="352.73" y1="208.42" x2="380.26" y2="247.55"/>
    <line x1="416.73" y1="231.63" x2="459.52" y2="247.22"/>
    <line x1="416.73" y1="231.63" x2="417.07" y2="256.84"/>
    <line x1="416.13" y1="230.26" x2="379.66" y2="246.18"/>
    <line x1="459.52" y1="247.22" x2="455.87" y2="261.81"/>
    <line x1="417.07" y1="256.84" x2="455.87" y2="261.81"/>
    <line x1="417.07" y1="256.84" x2="394.18" y2="267.45"/>
    <line x1="417.07" y1="256.84" x2="416.73" y2="294.97"/>
    <line x1="547.07" y1="266.12" x2="535.13" y2="299.95"/>
    <line x1="44.31" y1="281.38" x2="62.22" y2="281.71"/>
    <line x1="44.31" y1="281.38" x2="48.62" y2="327.47"/>
    <line x1="62.22" y1="281.71" x2="89.08" y2="280.38"/>
    <line x1="62.22" y1="281.71" x2="68.52" y2="325.82"/>
    <line x1="89.12" y1="281.88" x2="154.45" y2="280.22"/>
    <line x1="89.08" y1="280.38" x2="94.72" y2="324.16"/>
    <line x1="154.70" y1="280.19" x2="193.84" y2="272.57"/>
    <line x1="154.41" y1="278.72" x2="132.86" y2="301.61"/>
    <line x1="154.41" y1="278.72" x2="140.15" y2="314.87"/>
    <line x1="154.41" y1="278.72" x2="162.70" y2="312.22"/>
    <line x1="193.55" y1="271.10" x2="251.91" y2="272.76"/>
    <line x1="193.55" y1="271.10" x2="205.48" y2="286.02"/>
    <line x1="260.87" y1="247.22" x2="270.48" y2="259.49"/>
    <line x1="332.17" y1="235.94" x2="380.26" y2="247.55"/>
    <line x1="332.17" y1="235.94" x2="311.94" y2="283.37"/>
    <line x1="378.99" y1="246.75" x2="359.09" y2="278.26"/>
    <line x1="380.26" y1="247.55" x2="394.18" y2="267.45"/>
    <line x1="443.67" y1="320.46" x2="417.80" y2="293.92"/>
    <line x1="442.60" y1="321.51" x2="456.20" y2="290.66"/>
    <line x1="442.60" y1="321.51" x2="474.44" y2="327.81"/>
    <line x1="442.60" y1="321.51" x2="428.34" y2="348.70"/>
    <line x1="442.60" y1="321.51" x2="463.83" y2="375.56"/>
    <line x1="455.87" y1="261.81" x2="472.78" y2="275.08"/>
    <line x1="455.87" y1="261.81" x2="416.73" y2="294.97"/>
    <line x1="455.87" y1="261.81" x2="456.20" y2="290.66"/>
    <line x1="251.91" y1="272.76" x2="270.48" y2="259.49"/>
    <line x1="251.91" y1="272.76" x2="248.27" y2="288.34"/>
    <line x1="312.60" y1="256.84" x2="311.94" y2="283.37"/>
    <line x1="360.23" y1="277.57" x2="311.81" y2="281.88"/>
    <line x1="360.36" y1="279.06" x2="372.96" y2="287.35"/>
    <line x1="394.18" y1="267.45" x2="372.96" y2="287.35"/>
    <line x1="394.18" y1="267.45" x2="416.73" y2="294.97"/>
    <line x1="472.78" y1="275.08" x2="535.13" y2="299.95"/>
    <line x1="472.78" y1="275.08" x2="456.20" y2="290.66"/>
    <line x1="471.58" y1="275.98" x2="508.39" y2="324.73"/>
    <line x1="535.13" y1="299.95" x2="558.67" y2="323.16"/>
    <line x1="132.86" y1="301.61" x2="113.95" y2="318.85"/>
    <line x1="205.48" y1="286.02" x2="188.90" y2="303.93"/>
    <line x1="205.48" y1="286.02" x2="219.08" y2="302.60"/>
    <line x1="248.27" y1="288.34" x2="311.94" y2="283.37"/>
    <line x1="248.27" y1="288.34" x2="229.36" y2="318.19"/>
    <line x1="248.27" y1="288.34" x2="273.47" y2="307.91"/>
    <line x1="311.13" y1="282.11" x2="272.66" y2="306.65"/>
    <line x1="310.46" y1="283.64" x2="318.42" y2="326.75"/>
    <line x1="372.96" y1="287.35" x2="416.73" y2="294.97"/>
    <line x1="372.96" y1="287.35" x2="387.55" y2="311.89"/>
    <line x1="416.73" y1="294.97" x2="456.20" y2="290.66"/>
    <line x1="416.73" y1="294.97" x2="387.55" y2="311.89"/>
    <line x1="456.20" y1="290.66" x2="474.44" y2="327.81"/>
    <line x1="48.62" y1="327.47" x2="68.52" y2="325.82"/>
    <line x1="48.62" y1="327.47" x2="63.88" y2="359.64"/>
    <line x1="68.52" y1="325.82" x2="94.72" y2="324.16"/>
    <line x1="94.72" y1="324.16" x2="113.95" y2="318.85"/>
    <line x1="94.72" y1="324.16" x2="91.07" y2="338.09"/>
    <line x1="113.95" y1="318.85" x2="117.93" y2="338.09"/>
    <line x1="140.15" y1="314.87" x2="162.70" y2="312.22"/>
    <line x1="140.15" y1="314.87" x2="117.93" y2="338.09"/>
    <line x1="162.70" y1="312.22" x2="188.90" y2="303.93"/>
    <line x1="162.70" y1="312.22" x2="168.67" y2="347.37"/>
    <line x1="188.90" y1="303.93" x2="201.17" y2="316.53"/>
    <line x1="201.17" y1="316.53" x2="219.08" y2="302.60"/>
    <line x1="201.17" y1="316.53" x2="168.67" y2="347.37"/>
    <line x1="201.17" y1="316.53" x2="221.40" y2="334.77"/>
    <line x1="219.08" y1="302.60" x2="229.36" y2="318.19"/>
    <line x1="229.70" y1="319.65" x2="273.81" y2="309.37"/>
    <line x1="229.36" y1="318.19" x2="221.40" y2="334.77"/>
    <line x1="229.36" y1="318.19" x2="262.53" y2="343.39"/>
    <line x1="273.47" y1="307.91" x2="288.72" y2="326.48"/>
    <line x1="288.72" y1="326.48" x2="319.90" y2="326.48"/>
    <line x1="288.72" y1="326.48" x2="262.53" y2="343.39"/>
    <line x1="288.72" y1="326.48" x2="277.78" y2="353.34"/>
    <line x1="319.74" y1="327.97" x2="344.94" y2="330.62"/>
    <line x1="319.90" y1="326.48" x2="319.90" y2="348.04"/>
    <line x1="345.10" y1="329.13" x2="387.55" y2="311.89"/>
    <line x1="345.10" y1="329.13" x2="341.12" y2="351.02"/>
    <line x1="387.55" y1="311.89" x2="389.54" y2="370.26"/>
    <line x1="389.54" y1="370.26" x2="341.12" y2="351.02"/>
    <line x1="389.54" y1="370.26" x2="428.34" y2="348.70"/>
    <line x1="389.54" y1="370.26" x2="366.33" y2="385.84"/>
    <line x1="389.54" y1="370.26" x2="386.22" y2="420.00"/>
    <line x1="474.44" y1="327.81" x2="509.59" y2="323.83"/>
    <line x1="474.44" y1="327.81" x2="483.72" y2="365.61"/>
    <line x1="509.59" y1="323.83" x2="530.15" y2="353.34"/>
    <line x1="558.67" y1="323.16" x2="555.69" y2="370.92"/>
    <line x1="91.07" y1="338.09" x2="63.88" y2="359.64"/>
    <line x1="117.93" y1="338.09" x2="102.68" y2="356.33"/>
    <line x1="117.93" y1="338.09" x2="149.11" y2="361.96"/>
    <line x1="168.67" y1="347.37" x2="149.11" y2="361.96"/>
    <line x1="167.32" y1="348.02" x2="176.94" y2="367.92"/>
    <line x1="221.40" y1="334.77" x2="207.14" y2="359.97"/>
    <line x1="221.40" y1="334.77" x2="251.25" y2="351.02"/>
    <line x1="262.53" y1="343.39" x2="277.78" y2="353.34"/>
    <line x1="262.53" y1="343.39" x2="251.25" y2="351.02"/>
    <line x1="277.78" y1="353.34" x2="298.01" y2="370.26"/>
    <line x1="319.90" y1="348.04" x2="298.01" y2="370.26"/>
    <line x1="341.12" y1="351.02" x2="332.50" y2="392.47"/>
    <line x1="499.97" y1="409.72" x2="483.72" y2="365.61"/>
    <line x1="499.97" y1="409.72" x2="555.69" y2="370.92"/>
    <line x1="499.97" y1="409.72" x2="468.80" y2="418.34"/>
    <line x1="428.34" y1="348.70" x2="415.74" y2="374.23"/>
    <line x1="483.72" y1="365.61" x2="530.15" y2="353.34"/>
    <line x1="483.72" y1="365.61" x2="463.83" y2="375.56"/>
    <line x1="530.15" y1="353.34" x2="555.69" y2="370.92"/>
    <line x1="41.33" y1="365.94" x2="63.88" y2="359.64"/>
    <line x1="41.33" y1="365.94" x2="63.88" y2="397.45"/>
    <line x1="102.68" y1="356.33" x2="63.88" y2="397.45"/>
    <line x1="102.68" y1="356.33" x2="118.93" y2="385.18"/>
    <line x1="149.11" y1="361.96" x2="118.93" y2="385.18"/>
    <line x1="178.29" y1="367.27" x2="207.14" y2="359.97"/>
    <line x1="178.29" y1="367.27" x2="199.18" y2="387.50"/>
    <line x1="207.14" y1="359.97" x2="222.73" y2="364.29"/>
    <line x1="207.14" y1="359.97" x2="199.18" y2="387.50"/>
    <line x1="222.73" y1="364.29" x2="251.25" y2="351.02"/>
    <line x1="222.73" y1="364.29" x2="229.36" y2="398.11"/>
    <line x1="251.25" y1="351.02" x2="262.53" y2="379.21"/>
    <line x1="297.20" y1="371.52" x2="331.69" y2="393.73"/>
    <line x1="298.01" y1="370.26" x2="262.53" y2="379.21"/>
    <line x1="298.01" y1="370.26" x2="266.84" y2="401.10"/>
    <line x1="332.50" y1="392.47" x2="366.33" y2="385.84"/>
    <line x1="366.33" y1="385.84" x2="386.22" y2="420.00"/>
    <line x1="415.74" y1="374.23" x2="463.83" y2="375.56"/>
    <line x1="415.74" y1="374.23" x2="386.22" y2="420.00"/>
    <line x1="463.83" y1="375.56" x2="468.80" y2="418.34"/>
    <line x1="63.88" y1="397.45" x2="88.75" y2="410.38"/>
    <line x1="89.71" y1="411.53" x2="119.89" y2="386.33"/>
    <line x1="88.75" y1="410.38" x2="126.22" y2="418.34"/>
    <line x1="118.93" y1="385.18" x2="126.22" y2="418.34"/>
    <line x1="126.22" y1="418.34" x2="207.47" y2="399.11"/>
    <line x1="199.18" y1="387.50" x2="207.47" y2="399.11"/>
    <line x1="207.47" y1="399.11" x2="229.36" y2="398.11"/>
    <line x1="229.36" y1="398.11" x2="266.84" y2="401.10"/>
    <line x1="262.53" y1="379.21" x2="266.84" y2="401.10"/>
    <line x1="386.22" y1="420.00" x2="468.80" y2="418.34"/>
  </g>
  <g fill="none" stroke="#4466aa" stroke-width="2.5" stroke-dasharray="8,5" stroke-linecap="round" stroke-linejoin="round" style="z-index:4">
    <line x1="492.35" y1="237.93" x2="352.73" y2="208.42"/>
    <line x1="352.73" y1="208.42" x2="345.10" y2="329.13"/>
    <line x1="345.10" y1="329.13" x2="207.47" y2="399.11"/>
  </g>
  <g stroke="#333" stroke-width="1.5" style="z-index:5">
    <circle cx="93.39" cy="38.29" r="6" fill="#ffffff"/>
    <circle cx="191.89" cy="31.66" r="6" fill="#ffffff"/>
    <circle cx="254.23" cy="33.32" r="6" fill="#ffffff"/>
    <circle cx="292.37" cy="30.00" r="6" fill="#ffffff"/>
    <circle cx="445.92" cy="34.97" r="6" fill="#ffffff"/>
    <circle cx="493.34" cy="34.64" r="6" fill="#ffffff"/>
    <circle cx="541.43" cy="36.96" r="6" fill="#ffffff"/>
    <circle cx="74.49" cy="60.51" r="6" fill="#ffffff"/>
    <circle cx="113.29" cy="63.16" r="6" fill="#ffffff"/>
    <circle cx="223.72" cy="60.51" r="6" fill="#ffffff"/>
    <circle cx="252.58" cy="65.82" r="6" fill="#ffffff"/>
    <circle cx="275.79" cy="60.51" r="6" fill="#ffffff"/>
    <circle cx="320.56" cy="58.19" r="6" fill="#ffffff"/>
    <circle cx="364.67" cy="50.56" r="6" fill="#ffffff"/>
    <circle cx="411.76" cy="45.92" r="6" fill="#ffffff"/>
    <circle cx="455.54" cy="61.84" r="6" fill="#ffffff"/>
    <circle cx="537.78" cy="76.43" r="6" fill="#ffffff"/>
    <circle cx="51.94" cy="79.08" r="6" fill="#ffffff"/>
    <circle cx="87.76" cy="83.39" r="6" fill="#ffffff"/>
    <circle cx="134.52" cy="73.11" r="6" fill="#ffffff"/>
    <circle cx="180.28" cy="92.02" r="6" fill="#ffffff"/>
    <circle cx="254.23" cy="99.64" r="6" fill="#ffffff"/>
    <circle cx="290.38" cy="79.74" r="6" fill="#ffffff"/>
    <circle cx="347.09" cy="81.40" r="6" fill="#ffffff"/>
    <circle cx="371.63" cy="88.37" r="6" fill="#ffffff"/>
    <circle cx="408.44" cy="60.84" r="6" fill="#ffffff"/>
    <circle cx="415.08" cy="83.06" r="6" fill="#ffffff"/>
    <circle cx="431.99" cy="74.11" r="6" fill="#ffffff"/>
    <circle cx="494.67" cy="87.04" r="6" fill="#ffffff"/>
    <circle cx="554.36" cy="83.39" r="6" fill="#ffffff"/>
    <circle cx="66.86" cy="96.33" r="6" fill="#ffffff"/>
    <circle cx="117.93" cy="109.26" r="6" fill="#ffffff"/>
    <circle cx="159.72" cy="102.96" r="6" fill="#ffffff"/>
    <circle cx="226.05" cy="109.92" r="6" fill="#ffffff"/>
    <circle cx="266.51" cy="120.54" r="6" fill="#ffffff"/>
    <circle cx="282.42" cy="122.53" r="6" fill="#ffffff"/>
    <circle cx="308.29" cy="98.98" r="6" fill="#ffffff"/>
    <circle cx="360.03" cy="102.63" r="6" fill="#ffffff"/>
    <circle cx="383.57" cy="97.32" r="6" fill="#ffffff"/>
    <circle cx="424.36" cy="113.90" r="6" fill="#ffffff"/>
    <circle cx="441.61" cy="107.93" r="6" fill="#ffffff"/>
    <circle cx="539.77" cy="108.27" r="6" fill="#ffffff"/>
    <circle cx="42.65" cy="116.89" r="6" fill="#ffffff"/>
    <circle cx="96.05" cy="127.83" r="6" fill="#ffffff"/>
    <circle cx="132.19" cy="135.13" r="6" fill="#ffffff"/>
    <circle cx="166.02" cy="124.18" r="6" fill="#ffffff"/>
    <circle cx="192.55" cy="118.55" r="6" fill="#ffffff"/>
    <circle cx="235.00" cy="137.12" r="6" fill="#ffffff"/>
    <circle cx="294.69" cy="138.11" r="6" fill="#ffffff"/>
    <circle cx="320.56" cy="120.54" r="6" fill="#ffffff"/>
    <circle cx="371.96" cy="124.52" r="6" fill="#ffffff"/>
    <circle cx="398.83" cy="117.22" r="6" fill="#ffffff"/>
    <circle cx="429.01" cy="134.46" r="6" fill="#ffffff"/>
    <circle cx="448.90" cy="128.83" r="6" fill="#ffffff"/>
    <circle cx="495.33" cy="127.83" r="6" fill="#ffffff"/>
    <circle cx="556.35" cy="133.14" r="6" fill="#ffffff"/>
    <circle cx="59.23" cy="137.45" r="6" fill="#ffffff"/>
    <circle cx="110.97" cy="143.75" r="6" fill="#ffffff"/>
    <circle cx="121.58" cy="156.02" r="6" fill="#ffffff"/>
    <circle cx="141.48" cy="152.37" r="6" fill="#ffffff"/>
    <circle cx="175.31" cy="157.68" r="6" fill="#ffffff"/>
    <circle cx="193.88" cy="151.38" r="6" fill="#ffffff"/>
    <circle cx="238.32" cy="174.59" r="6" fill="#ffffff"/>
    <circle cx="265.18" cy="169.62" r="6" fill="#ffffff"/>
    <circle cx="293.37" cy="162.98" r="6" fill="#ffffff"/>
    <circle cx="311.61" cy="158.67" r="6" fill="#ffffff"/>
    <circle cx="340.13" cy="154.36" r="6" fill="#ffffff"/>
    <circle cx="377.27" cy="146.07" r="6" fill="#ffffff"/>
    <circle cx="410.43" cy="144.08" r="6" fill="#ffffff"/>
    <circle cx="452.22" cy="151.38" r="6" fill="#ffffff"/>
    <circle cx="489.03" cy="151.05" r="6" fill="#ffffff"/>
    <circle cx="527.50" cy="154.03" r="6" fill="#ffffff"/>
    <circle cx="58.57" cy="158.67" r="6" fill="#ffffff"/>
    <circle cx="77.14" cy="180.23" r="6" fill="#ffffff"/>
    <circle cx="102.35" cy="172.93" r="6" fill="#ffffff"/>
    <circle cx="135.18" cy="171.28" r="6" fill="#ffffff"/>
    <circle cx="157.07" cy="187.86" r="6" fill="#ffffff"/>
    <circle cx="182.93" cy="184.54" r="6" fill="#ffffff"/>
    <circle cx="202.17" cy="180.23" r="6" fill="#ffffff"/>
    <circle cx="246.94" cy="189.52" r="6" fill="#ffffff"/>
    <circle cx="283.42" cy="195.48" r="6" fill="#ffffff"/>
    <circle cx="296.68" cy="186.20" r="6" fill="#ffffff"/>
    <circle cx="333.83" cy="180.89" r="6" fill="#ffffff"/>
    <circle cx="357.70" cy="168.95" r="6" fill="#ffffff"/>
    <circle cx="378.93" cy="161.66" r="6" fill="#ffffff"/>
    <circle cx="416.07" cy="175.59" r="6" fill="#ffffff"/>
    <circle cx="454.54" cy="184.87" r="6" fill="#ffffff"/>
    <circle cx="471.79" cy="189.52" r="6" fill="#ffffff"/>
    <circle cx="486.05" cy="176.91" r="6" fill="#ffffff"/>
    <circle cx="513.24" cy="176.91" r="6" fill="#ffffff"/>
    <circle cx="550.71" cy="176.91" r="6" fill="#ffffff"/>
    <circle cx="44.97" cy="197.47" r="6" fill="#ffffff"/>
    <circle cx="47.30" cy="213.39" r="6" fill="#ffffff"/>
    <circle cx="80.46" cy="206.43" r="6" fill="#ffffff"/>
    <circle cx="95.71" cy="203.78" r="6" fill="#ffffff"/>
    <circle cx="173.65" cy="215.38" r="6" fill="#ffffff"/>
    <circle cx="190.56" cy="209.08" r="6" fill="#ffffff"/>
    <circle cx="212.45" cy="201.79" r="6" fill="#ffffff"/>
    <circle cx="233.67" cy="204.77" r="6" fill="#ffffff"/>
    <circle cx="270.82" cy="215.38" r="6" fill="#ffffff"/>
    <circle cx="308.95" cy="200.79" r="6" fill="#ffffff"/>
    <circle cx="354.72" cy="181.89" r="6" fill="#ffffff"/>
    <circle cx="384.90" cy="178.57" r="6" fill="#ffffff"/>
    <circle cx="416.07" cy="193.83" r="6" fill="#ffffff"/>
    <circle cx="501.63" cy="200.46" r="6" fill="#ffffff"/>
    <circle cx="534.46" cy="206.76" r="6" fill="#ffffff"/>
    <circle cx="558.01" cy="206.76" r="6" fill="#ffffff"/>
    <circle cx="492.35" cy="237.93" r="6" fill="#b0c4d8" stroke-dasharray="2,3"/>
    <circle cx="199.18" cy="241.91" r="6" fill="#ffffff"/>
    <circle cx="224.06" cy="217.04" r="6" fill="#ffffff"/>
    <circle cx="239.97" cy="236.61" r="6" fill="#ffffff"/>
    <circle cx="249.92" cy="229.64" r="6" fill="#ffffff"/>
    <circle cx="286.07" cy="229.64" r="6" fill="#ffffff"/>
    <circle cx="312.93" cy="221.35" r="6" fill="#ffffff"/>
    <circle cx="352.73" cy="208.42" r="6" fill="#b0c4d8" stroke-dasharray="2,3"/>
    <circle cx="416.73" cy="231.63" r="6" fill="#ffffff"/>
    <circle cx="459.52" cy="247.22" r="6" fill="#ffffff"/>
    <circle cx="417.07" cy="256.84" r="6" fill="#ffffff"/>
    <circle cx="547.07" cy="266.12" r="6" fill="#ffffff"/>
    <circle cx="44.31" cy="281.38" r="6" fill="#ffffff"/>
    <circle cx="62.22" cy="281.71" r="6" fill="#ffffff"/>
    <circle cx="89.08" cy="280.38" r="6" fill="#ffffff"/>
    <circle cx="154.41" cy="278.72" r="6" fill="#ffffff"/>
    <circle cx="193.55" cy="271.10" r="6" fill="#ffffff"/>
    <circle cx="260.87" cy="247.22" r="6" fill="#ffffff"/>
    <circle cx="332.17" cy="235.94" r="6" fill="#ffffff"/>
    <circle cx="380.26" cy="247.55" r="6" fill="#ffffff"/>
    <circle cx="442.60" cy="321.51" r="6" fill="#ffffff"/>
    <circle cx="455.87" cy="261.81" r="6" fill="#ffffff"/>
    <circle cx="251.91" cy="272.76" r="6" fill="#ffffff"/>
    <circle cx="270.48" cy="259.49" r="6" fill="#ffffff"/>
    <circle cx="312.60" cy="256.84" r="6" fill="#ffffff"/>
    <circle cx="360.36" cy="279.06" r="6" fill="#ffffff"/>
    <circle cx="394.18" cy="267.45" r="6" fill="#ffffff"/>
    <circle cx="472.78" cy="275.08" r="6" fill="#ffffff"/>
    <circle cx="535.13" cy="299.95" r="6" fill="#ffffff"/>
    <circle cx="132.86" cy="301.61" r="6" fill="#ffffff"/>
    <circle cx="205.48" cy="286.02" r="6" fill="#ffffff"/>
    <circle cx="248.27" cy="288.34" r="6" fill="#ffffff"/>
    <circle cx="311.94" cy="283.37" r="6" fill="#ffffff"/>
    <circle cx="372.96" cy="287.35" r="6" fill="#ffffff"/>
    <circle cx="416.73" cy="294.97" r="6" fill="#ffffff"/>
    <circle cx="456.20" cy="290.66" r="6" fill="#ffffff"/>
    <circle cx="48.62" cy="327.47" r="6" fill="#ffffff"/>
    <circle cx="68.52" cy="325.82" r="6" fill="#ffffff"/>
    <circle cx="94.72" cy="324.16" r="6" fill="#ffffff"/>
    <circle cx="113.95" cy="318.85" r="6" fill="#ffffff"/>
    <circle cx="140.15" cy="314.87" r="6" fill="#ffffff"/>
    <circle cx="162.70" cy="312.22" r="6" fill="#ffffff"/>
    <circle cx="188.90" cy="303.93" r="6" fill="#ffffff"/>
    <circle cx="201.17" cy="316.53" r="6" fill="#ffffff"/>
    <circle cx="219.08" cy="302.60" r="6" fill="#ffffff"/>
    <circle cx="229.36" cy="318.19" r="6" fill="#ffffff"/>
    <circle cx="273.47" cy="307.91" r="6" fill="#ffffff"/>
    <circle cx="288.72" cy="326.48" r="6" fill="#ffffff"/>
    <circle cx="319.90" cy="326.48" r="6" fill="#ffffff"/>
    <circle cx="345.10" cy="329.13" r="6" fill="#b0c4d8" stroke-dasharray="2,3"/>
    <circle cx="387.55" cy="311.89" r="6" fill="#ffffff"/>
    <circle cx="389.54" cy="370.26" r="6" fill="#ffffff"/>
    <circle cx="474.44" cy="327.81" r="6" fill="#ffffff"/>
    <circle cx="509.59" cy="323.83" r="6" fill="#ffffff"/>
    <circle cx="558.67" cy="323.16" r="6" fill="#ffffff"/>
    <circle cx="91.07" cy="338.09" r="6" fill="#ffffff"/>
    <circle cx="117.93" cy="338.09" r="6" fill="#ffffff"/>
    <circle cx="168.67" cy="347.37" r="6" fill="#ffffff"/>
    <circle cx="221.40" cy="334.77" r="6" fill="#ffffff"/>
    <circle cx="262.53" cy="343.39" r="6" fill="#ffffff"/>
    <circle cx="277.78" cy="353.34" r="6" fill="#ffffff"/>
    <circle cx="319.90" cy="348.04" r="6" fill="#ffffff"/>
    <circle cx="341.12" cy="351.02" r="6" fill="#ffffff"/>
    <circle cx="499.97" cy="409.72" r="6" fill="#ffffff"/>
    <circle cx="428.34" cy="348.70" r="6" fill="#ffffff"/>
    <circle cx="483.72" cy="365.61" r="6" fill="#ffffff"/>
    <circle cx="530.15" cy="353.34" r="6" fill="#ffffff"/>
    <circle cx="555.69" cy="370.92" r="6" fill="#ffffff"/>
    <circle cx="41.33" cy="365.94" r="6" fill="#ffffff"/>
    <circle cx="63.88" cy="359.64" r="6" fill="#ffffff"/>
    <circle cx="102.68" cy="356.33" r="6" fill="#ffffff"/>
    <circle cx="149.11" cy="361.96" r="6" fill="#ffffff"/>
    <circle cx="178.29" cy="367.27" r="6" fill="#ffffff"/>
    <circle cx="207.14" cy="359.97" r="6" fill="#ffffff"/>
    <circle cx="222.73" cy="364.29" r="6" fill="#ffffff"/>
    <circle cx="251.25" cy="351.02" r="6" fill="#ffffff"/>
    <circle cx="298.01" cy="370.26" r="6" fill="#ffffff"/>
    <circle cx="332.50" cy="392.47" r="6" fill="#ffffff"/>
    <circle cx="366.33" cy="385.84" r="6" fill="#ffffff"/>
    <circle cx="415.74" cy="374.23" r="6" fill="#ffffff"/>
    <circle cx="463.83" cy="375.56" r="6" fill="#ffffff"/>
    <circle cx="63.88" cy="397.45" r="6" fill="#ffffff"/>
    <circle cx="88.75" cy="410.38" r="6" fill="#ffffff"/>
    <circle cx="118.93" cy="385.18" r="6" fill="#ffffff"/>
    <circle cx="126.22" cy="418.34" r="6" fill="#ffffff"/>
    <circle cx="199.18" cy="387.50" r="6" fill="#ffffff"/>
    <circle cx="207.47" cy="399.11" r="6" fill="#ffffff"/>
    <circle cx="229.36" cy="398.11" r="6" fill="#ffffff"/>
    <circle cx="262.53" cy="379.21" r="6" fill="#ffffff"/>
    <circle cx="266.84" cy="401.10" r="6" fill="#ffffff"/>
    <circle cx="386.22" cy="420.00" r="6" fill="#ffffff"/>
    <circle cx="468.80" cy="418.34" r="6" fill="#ffffff"/>
  </g>
  <g fill="#222" font-family="sans-serif" font-size="7" text-anchor="middle" style="z-index:6">
    <text x="93.39" y="40.79">1</text>
    <text x="191.89" y="34.16">2</text>
    <text x="254.23" y="35.82">3</text>
    <text x="292.37" y="32.50">4</text>
    <text x="445.92" y="37.47">5</text>
    <text x="493.34" y="37.14">6</text>
    <text x="541.43" y="39.46">7</text>
    <text x="74.49" y="63.01">8</text>
    <text x="113.29" y="65.66">9</text>
    <text x="223.72" y="63.01">10</text>
    <text x="252.58" y="68.32">11</text>
    <text x="275.79" y="63.01">12</text>
    <text x="320.56" y="60.69">13</text>
    <text x="364.67" y="53.06">14</text>
    <text x="411.76" y="48.42">15</text>
    <text x="455.54" y="64.34">16</text>
    <text x="537.78" y="78.93">17</text>
    <text x="51.94" y="81.58">18</text>
    <text x="87.76" y="85.89">19</text>
    <text x="134.52" y="75.61">20</text>
    <text x="180.28" y="94.52">21</text>
    <text x="254.23" y="102.14">22</text>
    <text x="290.38" y="82.24">23</text>
    <text x="347.09" y="83.90">24</text>
    <text x="371.63" y="90.87">25</text>
    <text x="408.44" y="63.34">26</text>
    <text x="415.08" y="85.56">27</text>
    <text x="431.99" y="76.61">28</text>
    <text x="494.67" y="89.54">29</text>
    <text x="554.36" y="85.89">30</text>
    <text x="66.86" y="98.83">31</text>
    <text x="117.93" y="111.76">32</text>
    <text x="159.72" y="105.46">33</text>
    <text x="226.05" y="112.42">34</text>
    <text x="266.51" y="123.04">35</text>
    <text x="282.42" y="125.03">36</text>
    <text x="308.29" y="101.48">37</text>
    <text x="360.03" y="105.13">38</text>
    <text x="383.57" y="99.82">39</text>
    <text x="424.36" y="116.40">40</text>
    <text x="441.61" y="110.43">41</text>
    <text x="539.77" y="110.77">42</text>
    <text x="42.65" y="119.39">43</text>
    <text x="96.05" y="130.33">44</text>
    <text x="132.19" y="137.63">45</text>
    <text x="166.02" y="126.68">46</text>
    <text x="192.55" y="121.05">47</text>
    <text x="235.00" y="139.62">48</text>
    <text x="294.69" y="140.61">49</text>
    <text x="320.56" y="123.04">50</text>
    <text x="371.96" y="127.02">51</text>
    <text x="398.83" y="119.72">52</text>
    <text x="429.01" y="136.96">53</text>
    <text x="448.90" y="131.33">54</text>
    <text x="495.33" y="130.33">55</text>
    <text x="556.35" y="135.64">56</text>
    <text x="59.23" y="139.95">57</text>
    <text x="110.97" y="146.25">58</text>
    <text x="121.58" y="158.52">59</text>
    <text x="141.48" y="154.87">60</text>
    <text x="175.31" y="160.18">61</text>
    <text x="193.88" y="153.88">62</text>
    <text x="238.32" y="177.09">63</text>
    <text x="265.18" y="172.12">64</text>
    <text x="293.37" y="165.48">65</text>
    <text x="311.61" y="161.17">66</text>
    <text x="340.13" y="156.86">67</text>
    <text x="377.27" y="148.57">68</text>
    <text x="410.43" y="146.58">69</text>
    <text x="452.22" y="153.88">70</text>
    <text x="489.03" y="153.55">71</text>
    <text x="527.50" y="156.53">72</text>
    <text x="58.57" y="161.17">73</text>
    <text x="77.14" y="182.73">74</text>
    <text x="102.35" y="175.43">75</text>
    <text x="135.18" y="173.78">76</text>
    <text x="157.07" y="190.36">77</text>
    <text x="182.93" y="187.04">78</text>
    <text x="202.17" y="182.73">79</text>
    <text x="246.94" y="192.02">80</text>
    <text x="283.42" y="197.98">81</text>
    <text x="296.68" y="188.70">82</text>
    <text x="333.83" y="183.39">83</text>
    <text x="357.70" y="171.45">84</text>
    <text x="378.93" y="164.16">85</text>
    <text x="416.07" y="178.09">86</text>
    <text x="454.54" y="187.37">87</text>
    <text x="471.79" y="192.02">88</text>
    <text x="486.05" y="179.41">89</text>
    <text x="513.24" y="179.41">90</text>
    <text x="550.71" y="179.41">91</text>
    <text x="44.97" y="199.97">92</text>
    <text x="47.30" y="215.89">93</text>
    <text x="80.46" y="208.93">94</text>
    <text x="95.71" y="206.28">95</text>
    <text x="173.65" y="217.88">96</text>
    <text x="190.56" y="211.58">97</text>
    <text x="212.45" y="204.29">98</text>
    <text x="233.67" y="207.27">99</text>
    <text x="270.82" y="217.88">100</text>
    <text x="308.95" y="203.29">101</text>
    <text x="354.72" y="184.39">102</text>
    <text x="384.90" y="181.07">103</text>
    <text x="416.07" y="196.33">104</text>
    <text x="501.63" y="202.96">105</text>
    <text x="534.46" y="209.26">106</text>
    <text x="558.01" y="209.26">107</text>
    <text x="492.35" y="240.43">108</text>
    <text x="199.18" y="244.41">109</text>
    <text x="224.06" y="219.54">110</text>
    <text x="239.97" y="239.11">111</text>
    <text x="249.92" y="232.14">112</text>
    <text x="286.07" y="232.14">113</text>
    <text x="312.93" y="223.85">114</text>
    <text x="352.73" y="210.92">115</text>
    <text x="416.73" y="234.13">116</text>
    <text x="459.52" y="249.72">117</text>
    <text x="417.07" y="259.34">118</text>
    <text x="547.07" y="268.62">119</text>
    <text x="44.31" y="283.88">120</text>
    <text x="62.22" y="284.21">121</text>
    <text x="89.08" y="282.88">122</text>
    <text x="154.41" y="281.22">123</text>
    <text x="193.55" y="273.60">124</text>
    <text x="260.87" y="249.72">125</text>
    <text x="332.17" y="238.44">126</text>
    <text x="380.26" y="250.05">127</text>
    <text x="442.60" y="324.01">128</text>
    <text x="455.87" y="264.31">129</text>
    <text x="251.91" y="275.26">130</text>
    <text x="270.48" y="261.99">131</text>
    <text x="312.60" y="259.34">132</text>
    <text x="360.36" y="281.56">133</text>
    <text x="394.18" y="269.95">134</text>
    <text x="472.78" y="277.58">135</text>
    <text x="535.13" y="302.45">136</text>
    <text x="132.86" y="304.11">137</text>
    <text x="205.48" y="288.52">138</text>
    <text x="248.27" y="290.84">139</text>
    <text x="311.94" y="285.87">140</text>
    <text x="372.96" y="289.85">141</text>
    <text x="416.73" y="297.47">142</text>
    <text x="456.20" y="293.16">143</text>
    <text x="48.62" y="329.97">144</text>
    <text x="68.52" y="328.32">145</text>
    <text x="94.72" y="326.66">146</text>
    <text x="113.95" y="321.35">147</text>
    <text x="140.15" y="317.37">148</text>
    <text x="162.70" y="314.72">149</text>
    <text x="188.90" y="306.43">150</text>
    <text x="201.17" y="319.03">151</text>
    <text x="219.08" y="305.10">152</text>
    <text x="229.36" y="320.69">153</text>
    <text x="273.47" y="310.41">154</text>
    <text x="288.72" y="328.98">155</text>
    <text x="319.90" y="328.98">156</text>
    <text x="345.10" y="331.63">157</text>
    <text x="387.55" y="314.39">158</text>
    <text x="389.54" y="372.76">159</text>
    <text x="474.44" y="330.31">160</text>
    <text x="509.59" y="326.33">161</text>
    <text x="558.67" y="325.66">162</text>
    <text x="91.07" y="340.59">163</text>
    <text x="117.93" y="340.59">164</text>
    <text x="168.67" y="349.87">165</text>
    <text x="221.40" y="337.27">166</text>
    <text x="262.53" y="345.89">167</text>
    <text x="277.78" y="355.84">168</text>
    <text x="319.90" y="350.54">169</text>
    <text x="341.12" y="353.52">170</text>
    <text x="499.97" y="412.22">171</text>
    <text x="428.34" y="351.20">172</text>
    <text x="483.72" y="368.11">173</text>
    <text x="530.15" y="355.84">174</text>
    <text x="555.69" y="373.42">175</text>
    <text x="41.33" y="368.44">176</text>
    <text x="63.88" y="362.14">177</text>
    <text x="102.68" y="358.83">178</text>
    <text x="149.11" y="364.46">179</text>
    <text x="178.29" y="369.77">180</text>
    <text x="207.14" y="362.47">181</text>
    <text x="222.73" y="366.79">182</text>
    <text x="251.25" y="353.52">183</text>
    <text x="298.01" y="372.76">184</text>
    <text x="332.50" y="394.97">185</text>
    <text x="366.33" y="388.34">186</text>
    <text x="415.74" y="376.73">187</text>
    <text x="463.83" y="378.06">188</text>
    <text x="63.88" y="399.95">189</text>
    <text x="88.75" y="412.88">190</text>
    <text x="118.93" y="387.68">191</text>
    <text x="126.22" y="420.84">192</text>
    <text x="199.18" y="390.00">193</text>
    <text x="207.47" y="401.61">194</text>
    <text x="229.36" y="400.61">195</text>
    <text x="262.53" y="381.71">196</text>
    <text x="266.84" y="403.60">197</text>
    <text x="386.22" y="422.50">198</text>
    <text x="468.80" y="420.84">199</text>
  </g>
</svg>